<svg width="70" height="50" viewBox="0 0 70 50" fill="none" xmlns="http://www.w3.org/2000/svg">
<g clip-path="url(#clip0_1106_1043)">
<path d="M22.8009 39.514C21.6555 39.514 20.5102 40.4876 20.5102 41.8048C20.5102 42.9501 21.4837 44.0955 22.8009 44.0955C23.9462 44.0955 25.0916 43.1219 25.0916 41.8048C25.0916 40.6594 24.118 39.514 22.8009 39.514Z" stroke="#F7F8FF" stroke-width="2.59854" stroke-miterlimit="10" stroke-linecap="round" stroke-linejoin="round"/>
<path d="M8.48389 19.2984V27.8886" stroke="#F7F8FF" stroke-width="2.59854" stroke-miterlimit="10" stroke-linecap="round" stroke-linejoin="round"/>
<path d="M50.2896 28.0607V8.01691H20.0521" stroke="#F7F8FF" stroke-width="2.59854" stroke-miterlimit="10" stroke-linecap="round" stroke-linejoin="round"/>
<path d="M51.1487 32.0695V40.6597" stroke="#F7F8FF" stroke-width="2.59854" stroke-miterlimit="10" stroke-linecap="round" stroke-linejoin="round"/>
<path d="M47.4261 36.6507H31.9638" stroke="#F7F8FF" stroke-width="2.59854" stroke-miterlimit="10" stroke-linecap="round" stroke-linejoin="round"/>
<path d="M14.7836 36.0781H3.32996" stroke="#F7F8FF" stroke-width="2.59854" stroke-miterlimit="10" stroke-linecap="round" stroke-linejoin="round"/>
<path d="M6.19325 31.4968H21.6556" stroke="#F7F8FF" stroke-width="2.59854" stroke-miterlimit="10" stroke-linecap="round" stroke-linejoin="round"/>
<path d="M9.05655 36.1357V40.6599H68.6153C68.6153 40.6599 68.6153 32.6424 68.6153 29.7217C68.6153 26.801 66.1528 25.1975 62.0867 25.1975C58.0207 25.1975 50.8622 25.1975 50.8622 25.1975" stroke="#F7F8FF" stroke-width="2.59854" stroke-miterlimit="10" stroke-linecap="round" stroke-linejoin="round"/>
<path d="M50.8624 16.607H63.4613C63.4613 16.607 63.4613 12.0255 60.1971 12.0255C56.99 12.0255 50.8624 12.0255 50.8624 12.0255" stroke="#F7F8FF" stroke-width="2.59854" stroke-miterlimit="10" stroke-linecap="round" stroke-linejoin="round"/>
<path d="M68.6155 30.3514H64.034C64.034 30.3514 63.6904 34.9329 68.6155 34.9329" stroke="#F7F8FF" stroke-width="2.59854" stroke-miterlimit="10" stroke-linecap="round" stroke-linejoin="round"/>
<path d="M61.7433 16.6068L64.6067 25.197" stroke="#F7F8FF" stroke-width="2.59854" stroke-miterlimit="10" stroke-linecap="round" stroke-linejoin="round"/>
<path d="M59.1661 48.1043C62.4877 48.1043 65.1793 45.4128 65.1793 42.0912C65.1793 39.5714 63.6331 37.3952 61.3996 36.4789C60.7124 36.1926 59.9679 36.0781 59.1661 36.0781C55.8446 36.0781 53.153 38.7697 53.153 42.0912C53.153 45.4128 55.8446 48.1043 59.1661 48.1043Z" fill="white" stroke="#F7F8FF" stroke-width="2.59854" stroke-miterlimit="10" stroke-linecap="round" stroke-linejoin="round"/>
<path d="M22.5147 48.1043C25.8356 48.1043 28.5278 45.4122 28.5278 42.0912C28.5278 38.7702 25.8356 36.0781 22.5147 36.0781C19.1937 36.0781 16.5015 38.7702 16.5015 42.0912C16.5015 45.4122 19.1937 48.1043 22.5147 48.1043Z" fill="white" stroke="#F7F8FF" stroke-width="2.59854" stroke-miterlimit="10" stroke-linecap="round" stroke-linejoin="round"/>
<path d="M58.8801 44.0955C60.1452 44.0955 61.1708 43.0699 61.1708 41.8048C61.1708 40.5396 60.1452 39.514 58.8801 39.514C57.615 39.514 56.5894 40.5396 56.5894 41.8048C56.5894 43.0699 57.615 44.0955 58.8801 44.0955Z" fill="#F7F8FF"/>
<path d="M22.8009 39.514C21.6555 39.514 20.5102 40.4876 20.5102 41.8048C20.5102 42.9501 21.4837 44.0955 22.8009 44.0955C23.9462 44.0955 25.0916 43.1219 25.0916 41.8048C24.9198 40.6594 23.9462 39.514 22.8009 39.514Z" fill="#F7F8FF"/>
<path d="M8.77093 16.6077C13.357 16.6077 17.0748 12.89 17.0748 8.30386C17.0748 3.71777 13.357 0 8.77093 0C4.18484 0 0.467072 3.71777 0.467072 8.30386C0.467072 12.89 4.18484 16.6077 8.77093 16.6077Z" fill="#E63976"/>
<path d="M5.04813 8.93357L7.33885 11.4534L12.493 5.72656" stroke="#FAF7F5" stroke-width="2.59854" stroke-linecap="round" stroke-linejoin="round"/>
</g>
<defs>
<clipPath id="clip0_1106_1043">
<rect width="69.2943" height="49.2505" fill="white" transform="translate(0.467072)"/>
</clipPath>
</defs>
</svg>
