<svg width="50" height="50" viewBox="0 0 50 50" fill="none" xmlns="http://www.w3.org/2000/svg">
<g clip-path="url(#clip0_1106_1071)">
<path d="M25.0855 33.6053C29.8298 33.6053 33.6758 29.7593 33.6758 25.015C33.6758 20.2707 29.8298 16.4247 25.0855 16.4247C20.3412 16.4247 16.4952 20.2707 16.4952 25.015C16.4952 29.7593 20.3412 33.6053 25.0855 33.6053Z" stroke="#F7F8FF" stroke-width="2.59854" stroke-miterlimit="10"/>
<path d="M12.9449 48.781C16.2659 48.781 18.9581 46.0888 18.9581 42.7678C18.9581 39.4468 16.2659 36.7546 12.9449 36.7546C9.62393 36.7546 6.93173 39.4468 6.93173 42.7678C6.93173 46.0888 9.62393 48.781 12.9449 48.781Z" stroke="#F7F8FF" stroke-width="2.59854" stroke-miterlimit="10"/>
<path d="M40.7197 14.6489C44.0407 14.6489 46.7329 11.9567 46.7329 8.63575C46.7329 5.31476 44.0407 2.62256 40.7197 2.62256C37.3987 2.62256 34.7066 5.31476 34.7066 8.63575C34.7066 11.9567 37.3987 14.6489 40.7197 14.6489Z" fill="#E63976"/>
<path d="M40.72 9.95326C41.4475 9.95326 42.0372 9.36354 42.0372 8.63608C42.0372 7.90863 41.4475 7.31891 40.72 7.31891C39.9926 7.31891 39.4029 7.90863 39.4029 8.63608C39.4029 9.36354 39.9926 9.95326 40.72 9.95326Z" fill="white"/>
<path d="M44.4996 41.3941C46.9034 41.3941 48.852 39.4455 48.852 37.0417C48.852 34.638 46.9034 32.6893 44.4996 32.6893C42.0959 32.6893 40.1472 34.638 40.1472 37.0417C40.1472 39.4455 42.0959 41.3941 44.4996 41.3941Z" stroke="#F7F8FF" stroke-width="2.59854" stroke-miterlimit="10"/>
<path d="M5.84345 9.95372C8.24722 9.95372 10.1959 8.00508 10.1959 5.60131C10.1959 3.19754 8.24722 1.2489 5.84345 1.2489C3.43968 1.2489 1.49104 3.19754 1.49104 5.60131C1.49104 8.00508 3.43968 9.95372 5.84345 9.95372Z" stroke="#F7F8FF" stroke-width="2.59854" stroke-miterlimit="10"/>
<path d="M8.87852 8.75098L18.6714 18.5439" stroke="#F7F8FF" stroke-width="2.59854" stroke-miterlimit="10"/>
<path d="M31.4423 18.486L35.7947 14.0191" stroke="#F7F8FF" stroke-width="2.59854" stroke-miterlimit="10"/>
<path d="M32.6451 30.0544L40.3764 34.8077" stroke="#F7F8FF" stroke-width="2.59854" stroke-miterlimit="10"/>
<path d="M19.9886 32.2308L16.4952 37.5568" stroke="#F7F8FF" stroke-width="2.59854" stroke-miterlimit="10"/>
</g>
<defs>
<clipPath id="clip0_1106_1071">
<rect width="49.7663" height="49.2509" fill="white" transform="translate(0.231033 0.389465)"/>
</clipPath>
</defs>
</svg>
