<svg width="69" height="50" viewBox="0 0 69 50" fill="none" xmlns="http://www.w3.org/2000/svg">
<path d="M18.6244 9.22143V11.2648C18.6244 12.6795 19.7771 13.7798 21.1917 13.7798H25.3833L25.4881 13.8846C25.4881 13.8846 27.8982 16.1899 28.0554 16.1899L28.2126 13.7798H36.4386C37.8532 13.7798 39.0059 12.6271 39.0059 11.2648V3.03887C39.0583 1.67661 37.9056 0.523926 36.4909 0.523926H21.5585C19.2531 0.523926 18.6244 2.7245 18.6244 4.24394C18.6244 5.76339 18.6244 9.43101 18.6244 9.22143Z" fill="#E63976"/>
<path d="M26.4835 4.7155C26.7979 3.72001 27.6886 3.09127 28.6841 3.14367C29.8892 3.24846 30.7799 4.40114 30.6751 5.711C30.6227 6.7065 29.3652 7.44002 28.8937 7.75439C28.3174 8.12115 28.4221 8.80228 28.4221 8.90707" stroke="white" stroke-width="2.59854" stroke-linecap="round" stroke-linejoin="round"/>
<path d="M29.1032 11.3171C29.0508 11.7363 28.6841 12.0507 28.2649 12.0507C27.8457 11.9983 27.5314 11.6315 27.5314 11.2123C27.5838 10.7932 27.9505 10.4788 28.3697 10.4788C28.7888 10.5312 29.1556 10.898 29.1032 11.3171Z" fill="white"/>
<path d="M42.202 7.85913H57.5536C60.3829 7.85913 62.6359 10.1121 62.6359 12.8366V37.2001" stroke="#F7F8FF" stroke-width="2.59854" stroke-miterlimit="10" stroke-linecap="round" stroke-linejoin="round"/>
<path d="M6.57359 37.2001V12.8366C6.57359 10.0597 8.82656 7.85913 11.6035 7.85913H15.4807" stroke="#F7F8FF" stroke-width="2.59854" stroke-miterlimit="10" stroke-linecap="round" stroke-linejoin="round"/>
<path d="M1.33412 40.3438H67.3513C67.3513 40.3438 68.1373 48.203 60.54 48.203H9.24571C2.59159 48.203 1.33412 40.3438 1.33412 40.3438Z" stroke="#F7F8FF" stroke-width="2.59854" stroke-miterlimit="10" stroke-linecap="round" stroke-linejoin="round"/>
<path d="M30.1512 43.7495H40.1061" stroke="#F7F8FF" stroke-width="2.59854" stroke-miterlimit="10" stroke-linecap="round" stroke-linejoin="round"/>
<path d="M16.057 20.6959H26.4836" stroke="#F7F8FF" stroke-width="2.59854" stroke-miterlimit="10" stroke-linecap="round" stroke-linejoin="round"/>
<path d="M16.0046 24.3635H33.8188" stroke="#F7F8FF" stroke-width="2.59854" stroke-miterlimit="10" stroke-linecap="round" stroke-linejoin="round"/>
<path d="M16.0046 28.0834H33.8188" stroke="#F7F8FF" stroke-width="2.59854" stroke-miterlimit="10" stroke-linecap="round" stroke-linejoin="round"/>
</svg>
