<svg width="43" height="50" viewBox="0 0 43 50" fill="none" xmlns="http://www.w3.org/2000/svg">
<path d="M2.79023 48.2534V41.5591C2.79023 41.5591 1.26011 28.7443 1.26011 27.4054C1.30793 23.7714 9.34109 14.3037 9.34109 14.3037" stroke="#F7F8FF" stroke-width="2.59854" stroke-miterlimit="10" stroke-linecap="round" stroke-linejoin="round"/>
<path d="M23.112 41.5591C23.112 41.9895 22.7773 42.3242 22.347 42.3242C21.9166 42.3242 21.5819 41.9895 21.5819 41.5591C21.5819 41.1288 21.9166 40.7941 22.347 40.7941C22.7773 40.7941 23.112 41.1288 23.112 41.5591Z" stroke="#F7F8FF" stroke-width="2.59854" stroke-miterlimit="10" stroke-linecap="round" stroke-linejoin="round"/>
<path d="M34.7317 35.8212V40.8419C34.7317 43.0414 32.9146 44.8585 30.7151 44.8585H14.4575" stroke="#F7F8FF" stroke-width="2.59854" stroke-miterlimit="10" stroke-linecap="round" stroke-linejoin="round"/>
<path d="M10.4408 30.4178V5.1229C10.4408 2.92335 12.2579 1.10632 14.4574 1.10632H30.715C32.9146 1.10632 34.7316 2.92335 34.7316 5.1229V18.0812" stroke="#F7F8FF" stroke-width="2.59854" stroke-miterlimit="10" stroke-linecap="round" stroke-linejoin="round"/>
<path d="M10.4408 6.70099H34.7794" stroke="#F7F8FF" stroke-width="2.59854" stroke-miterlimit="10" stroke-linecap="round" stroke-linejoin="round"/>
<path d="M13.2141 38.3072H34.7793" stroke="#F7F8FF" stroke-width="2.59854" stroke-miterlimit="10" stroke-linecap="round" stroke-linejoin="round"/>
<path d="M15.0792 20.8542H16.0834C16.0834 20.8542 17.1831 25.8749 17.3266 26.3531C17.5179 26.7356 17.9482 27.6919 19.3349 27.6919H26.1726C27.0333 27.6919 27.6549 26.8791 27.8462 26.0662C28.0375 25.2055 28.9938 20.902 28.9938 20.902H30.2848" stroke="#F7F8FF" stroke-width="2.59854" stroke-miterlimit="10" stroke-linecap="round" stroke-linejoin="round"/>
<path d="M19.8605 20.8542H25.0725" stroke="#F7F8FF" stroke-width="2.59854" stroke-miterlimit="10" stroke-linecap="round" stroke-linejoin="round"/>
<path d="M18.283 21.5237V17.4115C18.283 16.4073 19.6218 14.0643 22.6343 14.0643C25.6467 14.0643 26.6987 16.3595 26.6987 17.794V21.5237" stroke="#F7F8FF" stroke-width="2.59854" stroke-miterlimit="10" stroke-linecap="round" stroke-linejoin="round"/>
<path d="M25.6941 23.3884V25.2533" stroke="#F7F8FF" stroke-width="1.73236" stroke-miterlimit="10" stroke-linecap="round" stroke-linejoin="round"/>
<path d="M23.6382 23.3884V25.2533" stroke="#F7F8FF" stroke-width="1.73236" stroke-miterlimit="10" stroke-linecap="round" stroke-linejoin="round"/>
<path d="M21.5341 23.3884V25.2533" stroke="#F7F8FF" stroke-width="1.73236" stroke-miterlimit="10" stroke-linecap="round" stroke-linejoin="round"/>
<path d="M19.4782 23.3884V25.2533" stroke="#F7F8FF" stroke-width="1.73236" stroke-miterlimit="10" stroke-linecap="round" stroke-linejoin="round"/>
<path d="M12.3058 48.4922C12.3058 48.4922 11.5407 41.2241 12.1145 40.5546C12.6883 39.8852 16.3702 30.5132 16.8962 29.3656C17.4222 28.2658 17.6134 26.5444 16.6571 25.875C15.7008 25.2056 14.3141 25.3012 13.2143 26.5444C12.1145 27.7877 9.38899 32.378 9.38899 32.378" stroke="#F7F8FF" stroke-width="2.59854" stroke-miterlimit="10" stroke-linecap="round" stroke-linejoin="round"/>
<path d="M19.6694 4.40527H25.4552" stroke="#F7F8FF" stroke-width="2.59854" stroke-miterlimit="10" stroke-linecap="round" stroke-linejoin="round"/>
<path d="M41.8563 25.3015H40.9478V24.1539C40.9478 21.9066 39.0351 20.0895 36.6443 20.0895C34.2535 20.0895 32.3408 21.9066 32.3408 24.1539V25.3015H31.4323C31.2888 25.3015 31.1454 25.445 31.1454 25.5884V32.8087C31.1454 33.4303 31.6714 33.9563 32.3408 33.9563H40.8999C41.5694 33.9563 42.0954 33.4303 42.0954 32.8087V25.6362C42.1432 25.445 41.9997 25.3015 41.8563 25.3015ZM37.505 31.2786C37.505 31.3742 37.4572 31.422 37.4093 31.5177C37.3615 31.5655 37.2659 31.6133 37.2181 31.6133H36.0227C35.927 31.6133 35.8792 31.5655 35.8314 31.5177C35.7836 31.422 35.7358 31.3742 35.7358 31.2786L35.927 29.7485C35.5923 29.5572 35.4489 29.2225 35.4489 28.8878C35.4489 28.2661 35.9748 27.788 36.6443 27.788C37.3137 27.788 37.8397 28.2661 37.8397 28.8878C37.8397 29.2703 37.6484 29.5572 37.3615 29.7485L37.505 31.2786ZM39.2742 25.3493H34.0144V24.2496C34.0144 23.0063 35.2098 22.0022 36.6443 22.0022C38.0788 22.0022 39.2742 23.0063 39.2742 24.2496V25.3493Z" fill="#E63976"/>
</svg>
